<mxfile host="Electron" modified="2023-10-30T14:21:48.419Z" agent="Mozilla/5.0 (Windows NT 10.0; Win64; x64) AppleWebKit/537.36 (KHTML, like Gecko) draw.io/22.0.3 Chrome/114.0.5735.289 Electron/25.8.4 Safari/537.36" etag="vxSHG_barhHlBFtXVXbN" version="22.0.3" type="device">
  <diagram name="Page-1" id="97916047-d0de-89f5-080d-49f4d83e522f">
    <mxGraphModel dx="2276" dy="1086" grid="1" gridSize="10" guides="1" tooltips="1" connect="1" arrows="1" fold="1" page="1" pageScale="1.5" pageWidth="1169" pageHeight="827" background="none" math="0" shadow="0">
      <root>
        <mxCell id="0" />
        <mxCell id="1" parent="0" />
        <mxCell id="2" value="Admin" style="rounded=1;fillColor=#10739E;strokeColor=none;shadow=1;gradientColor=none;fontStyle=1;fontColor=#FFFFFF;fontSize=14;" parent="1" vertex="1">
          <mxGeometry x="672" y="205.5" width="200" height="60" as="geometry" />
        </mxCell>
        <mxCell id="3" value="Quản lý" style="rounded=1;fillColor=#10739E;strokeColor=none;shadow=1;gradientColor=none;fontStyle=1;fontColor=#FFFFFF;fontSize=14;" parent="1" vertex="1">
          <mxGeometry x="662" y="345.5" width="220" height="60" as="geometry" />
        </mxCell>
        <mxCell id="4" value="Cập nhật thông tin" style="rounded=1;fillColor=#10739E;strokeColor=none;shadow=1;gradientColor=none;fontStyle=1;fontColor=#FFFFFF;fontSize=14;" parent="1" vertex="1">
          <mxGeometry x="302" y="455.5" width="200" height="60" as="geometry" />
        </mxCell>
        <mxCell id="5" value="Tra cứu thông tin" style="rounded=1;fillColor=#10739E;strokeColor=none;shadow=1;gradientColor=none;fontStyle=1;fontColor=#FFFFFF;fontSize=14;" parent="1" vertex="1">
          <mxGeometry x="530" y="455.5" width="200" height="60" as="geometry" />
        </mxCell>
        <mxCell id="6" value="Thêm mới dữ liệu" style="rounded=1;fillColor=#10739E;strokeColor=none;shadow=1;gradientColor=none;fontStyle=1;fontColor=#FFFFFF;fontSize=14;" parent="1" vertex="1">
          <mxGeometry x="810" y="455.5" width="200" height="60" as="geometry" />
        </mxCell>
        <mxCell id="7" value="Đăng xuất" style="rounded=1;fillColor=#10739E;strokeColor=none;shadow=1;gradientColor=none;fontStyle=1;fontColor=#FFFFFF;fontSize=14;" parent="1" vertex="1">
          <mxGeometry x="1272" y="455.5" width="200" height="60" as="geometry" />
        </mxCell>
        <mxCell id="8" value="Nhân viên" style="rounded=1;fillColor=#10739E;strokeColor=none;shadow=1;gradientColor=none;fontStyle=1;fontColor=#FFFFFF;fontSize=14;" parent="1" vertex="1">
          <mxGeometry x="150" y="560" width="200" height="60" as="geometry" />
        </mxCell>
        <mxCell id="9" value="Khách hàng" style="rounded=1;fillColor=#10739E;strokeColor=none;shadow=1;gradientColor=none;fontStyle=1;fontColor=#FFFFFF;fontSize=14;" parent="1" vertex="1">
          <mxGeometry x="150" y="630" width="200" height="60" as="geometry" />
        </mxCell>
        <mxCell id="10" value="Dịch vụ" style="rounded=1;fillColor=#10739E;strokeColor=none;shadow=1;gradientColor=none;fontStyle=1;fontColor=#FFFFFF;fontSize=14;" parent="1" vertex="1">
          <mxGeometry x="150" y="700" width="200" height="60" as="geometry" />
        </mxCell>
        <mxCell id="11" value="Sản phẩm" style="rounded=1;fillColor=#10739E;strokeColor=none;shadow=1;gradientColor=none;fontStyle=1;fontColor=#FFFFFF;fontSize=14;" parent="1" vertex="1">
          <mxGeometry x="150" y="770" width="200" height="60" as="geometry" />
        </mxCell>
        <mxCell id="12" value="Khuyến mãi" style="rounded=1;fillColor=#10739E;strokeColor=none;shadow=1;gradientColor=none;fontStyle=1;fontColor=#FFFFFF;fontSize=14;" parent="1" vertex="1">
          <mxGeometry x="150" y="840" width="200" height="60" as="geometry" />
        </mxCell>
        <mxCell id="29" value="" style="edgeStyle=elbowEdgeStyle;elbow=vertical;strokeWidth=4;endArrow=block;endFill=1;fontStyle=1;strokeColor=#23445D;" parent="1" source="2" target="3" edge="1">
          <mxGeometry x="22" y="165.5" width="100" height="100" as="geometry">
            <mxPoint x="22" y="265.5" as="sourcePoint" />
            <mxPoint x="122" y="165.5" as="targetPoint" />
          </mxGeometry>
        </mxCell>
        <mxCell id="30" value="" style="edgeStyle=elbowEdgeStyle;elbow=vertical;strokeWidth=4;endArrow=block;endFill=1;fontStyle=1;strokeColor=#23445D;" parent="1" source="3" target="5" edge="1">
          <mxGeometry x="22" y="165.5" width="100" height="100" as="geometry">
            <mxPoint x="22" y="265.5" as="sourcePoint" />
            <mxPoint x="122" y="165.5" as="targetPoint" />
          </mxGeometry>
        </mxCell>
        <mxCell id="31" value="" style="edgeStyle=elbowEdgeStyle;elbow=vertical;strokeWidth=4;endArrow=block;endFill=1;fontStyle=1;strokeColor=#23445D;" parent="1" source="3" target="4" edge="1">
          <mxGeometry x="22" y="165.5" width="100" height="100" as="geometry">
            <mxPoint x="22" y="265.5" as="sourcePoint" />
            <mxPoint x="122" y="165.5" as="targetPoint" />
          </mxGeometry>
        </mxCell>
        <mxCell id="32" value="" style="edgeStyle=elbowEdgeStyle;elbow=vertical;strokeWidth=4;endArrow=block;endFill=1;fontStyle=1;strokeColor=#23445D;" parent="1" source="3" target="6" edge="1">
          <mxGeometry x="22" y="165.5" width="100" height="100" as="geometry">
            <mxPoint x="22" y="265.5" as="sourcePoint" />
            <mxPoint x="122" y="165.5" as="targetPoint" />
          </mxGeometry>
        </mxCell>
        <mxCell id="33" value="" style="edgeStyle=elbowEdgeStyle;elbow=vertical;strokeWidth=4;endArrow=block;endFill=1;fontStyle=1;dashed=1;strokeColor=#23445D;" parent="1" source="2" target="7" edge="1">
          <mxGeometry x="22" y="165.5" width="100" height="100" as="geometry">
            <mxPoint x="22" y="265.5" as="sourcePoint" />
            <mxPoint x="122" y="165.5" as="targetPoint" />
            <Array as="points">
              <mxPoint x="1062" y="295.5" />
            </Array>
          </mxGeometry>
        </mxCell>
        <mxCell id="55" value="" style="edgeStyle=elbowEdgeStyle;elbow=vertical;strokeWidth=4;endArrow=block;endFill=1;fontStyle=1;strokeColor=#23445D;exitX=0.5;exitY=1;exitDx=0;exitDy=0;entryX=0.5;entryY=0;entryDx=0;entryDy=0;" parent="1" source="3" target="ednj_QzTxMK5WcQrPtkd-55" edge="1">
          <mxGeometry x="22" y="165.5" width="100" height="100" as="geometry">
            <mxPoint x="772" y="410" as="sourcePoint" />
            <mxPoint x="122" y="165.5" as="targetPoint" />
            <Array as="points">
              <mxPoint x="780" y="430" />
              <mxPoint x="942" y="555.5" />
            </Array>
          </mxGeometry>
        </mxCell>
        <mxCell id="ednj_QzTxMK5WcQrPtkd-55" value="Thống kê số liệu" style="rounded=1;fillColor=#10739E;strokeColor=none;shadow=1;gradientColor=none;fontStyle=1;fontColor=#FFFFFF;fontSize=14;" vertex="1" parent="1">
          <mxGeometry x="1042" y="455.5" width="200" height="60" as="geometry" />
        </mxCell>
        <mxCell id="ednj_QzTxMK5WcQrPtkd-56" value="" style="edgeStyle=elbowEdgeStyle;elbow=vertical;strokeWidth=4;endArrow=block;endFill=1;fontStyle=1;strokeColor=#23445D;entryX=1;entryY=0.5;entryDx=0;entryDy=0;exitX=0.5;exitY=1;exitDx=0;exitDy=0;" edge="1" parent="1" source="4" target="8">
          <mxGeometry x="22" y="165.5" width="100" height="100" as="geometry">
            <mxPoint x="782" y="416" as="sourcePoint" />
            <mxPoint x="412" y="466" as="targetPoint" />
            <Array as="points">
              <mxPoint x="350" y="590" />
            </Array>
          </mxGeometry>
        </mxCell>
        <mxCell id="ednj_QzTxMK5WcQrPtkd-62" value="Bài đăng" style="rounded=1;fillColor=#10739E;strokeColor=none;shadow=1;gradientColor=none;fontStyle=1;fontColor=#FFFFFF;fontSize=14;" vertex="1" parent="1">
          <mxGeometry x="150" y="910" width="200" height="60" as="geometry" />
        </mxCell>
        <mxCell id="ednj_QzTxMK5WcQrPtkd-63" value="Tài khoản" style="rounded=1;fillColor=#10739E;strokeColor=none;shadow=1;gradientColor=none;fontStyle=1;fontColor=#FFFFFF;fontSize=14;" vertex="1" parent="1">
          <mxGeometry x="150" y="980" width="200" height="60" as="geometry" />
        </mxCell>
        <mxCell id="ednj_QzTxMK5WcQrPtkd-64" value="Lịch hẹn" style="rounded=1;fillColor=#10739E;strokeColor=none;shadow=1;gradientColor=none;fontStyle=1;fontColor=#FFFFFF;fontSize=14;" vertex="1" parent="1">
          <mxGeometry x="150" y="1050" width="200" height="60" as="geometry" />
        </mxCell>
        <mxCell id="ednj_QzTxMK5WcQrPtkd-65" value="Hóa đơn" style="rounded=1;fillColor=#10739E;strokeColor=none;shadow=1;gradientColor=none;fontStyle=1;fontColor=#FFFFFF;fontSize=14;" vertex="1" parent="1">
          <mxGeometry x="150" y="1120" width="200" height="60" as="geometry" />
        </mxCell>
        <mxCell id="ednj_QzTxMK5WcQrPtkd-66" value="" style="edgeStyle=elbowEdgeStyle;elbow=vertical;strokeWidth=4;endArrow=block;endFill=1;fontStyle=1;strokeColor=#23445D;entryX=1;entryY=0.5;entryDx=0;entryDy=0;exitX=0.5;exitY=1;exitDx=0;exitDy=0;" edge="1" parent="1" source="4" target="9">
          <mxGeometry x="22" y="165.5" width="100" height="100" as="geometry">
            <mxPoint x="400" y="510" as="sourcePoint" />
            <mxPoint x="360" y="600" as="targetPoint" />
            <Array as="points">
              <mxPoint x="380" y="660" />
            </Array>
          </mxGeometry>
        </mxCell>
        <mxCell id="ednj_QzTxMK5WcQrPtkd-67" value="" style="edgeStyle=elbowEdgeStyle;elbow=vertical;strokeWidth=4;endArrow=block;endFill=1;fontStyle=1;strokeColor=#23445D;entryX=1;entryY=0.5;entryDx=0;entryDy=0;exitX=0.5;exitY=1;exitDx=0;exitDy=0;" edge="1" parent="1" source="4" target="10">
          <mxGeometry x="22" y="165.5" width="100" height="100" as="geometry">
            <mxPoint x="400" y="520" as="sourcePoint" />
            <mxPoint x="360" y="670" as="targetPoint" />
            <Array as="points">
              <mxPoint x="390" y="730" />
            </Array>
          </mxGeometry>
        </mxCell>
        <mxCell id="ednj_QzTxMK5WcQrPtkd-68" value="" style="edgeStyle=elbowEdgeStyle;elbow=vertical;strokeWidth=4;endArrow=block;endFill=1;fontStyle=1;strokeColor=#23445D;entryX=1;entryY=0.5;entryDx=0;entryDy=0;exitX=0.5;exitY=1;exitDx=0;exitDy=0;" edge="1" parent="1" source="4" target="11">
          <mxGeometry x="22" y="165.5" width="100" height="100" as="geometry">
            <mxPoint x="412" y="526" as="sourcePoint" />
            <mxPoint x="360" y="740" as="targetPoint" />
            <Array as="points">
              <mxPoint x="380" y="800" />
            </Array>
          </mxGeometry>
        </mxCell>
        <mxCell id="ednj_QzTxMK5WcQrPtkd-69" value="" style="edgeStyle=elbowEdgeStyle;elbow=vertical;strokeWidth=4;endArrow=block;endFill=1;fontStyle=1;strokeColor=#23445D;entryX=1;entryY=0.5;entryDx=0;entryDy=0;exitX=0.5;exitY=1;exitDx=0;exitDy=0;" edge="1" parent="1" source="4" target="ednj_QzTxMK5WcQrPtkd-62">
          <mxGeometry x="22" y="165.5" width="100" height="100" as="geometry">
            <mxPoint x="422" y="536" as="sourcePoint" />
            <mxPoint x="370" y="750" as="targetPoint" />
            <Array as="points">
              <mxPoint x="390" y="940" />
            </Array>
          </mxGeometry>
        </mxCell>
        <mxCell id="ednj_QzTxMK5WcQrPtkd-70" value="" style="edgeStyle=elbowEdgeStyle;elbow=vertical;strokeWidth=4;endArrow=block;endFill=1;fontStyle=1;strokeColor=#23445D;entryX=1;entryY=0.5;entryDx=0;entryDy=0;exitX=0.5;exitY=1;exitDx=0;exitDy=0;" edge="1" parent="1" source="4" target="12">
          <mxGeometry x="22" y="165.5" width="100" height="100" as="geometry">
            <mxPoint x="402" y="516" as="sourcePoint" />
            <mxPoint x="350" y="870" as="targetPoint" />
            <Array as="points">
              <mxPoint x="380" y="870" />
            </Array>
          </mxGeometry>
        </mxCell>
        <mxCell id="ednj_QzTxMK5WcQrPtkd-71" value="" style="edgeStyle=elbowEdgeStyle;elbow=vertical;strokeWidth=4;endArrow=block;endFill=1;fontStyle=1;strokeColor=#23445D;entryX=1;entryY=0.5;entryDx=0;entryDy=0;exitX=0.5;exitY=1;exitDx=0;exitDy=0;" edge="1" parent="1" source="4" target="ednj_QzTxMK5WcQrPtkd-63">
          <mxGeometry x="22" y="165.5" width="100" height="100" as="geometry">
            <mxPoint x="432" y="546" as="sourcePoint" />
            <mxPoint x="380" y="760" as="targetPoint" />
            <Array as="points">
              <mxPoint x="380" y="1010" />
            </Array>
          </mxGeometry>
        </mxCell>
        <mxCell id="ednj_QzTxMK5WcQrPtkd-72" value="" style="edgeStyle=elbowEdgeStyle;elbow=vertical;strokeWidth=4;endArrow=block;endFill=1;fontStyle=1;strokeColor=#23445D;entryX=1;entryY=0.5;entryDx=0;entryDy=0;exitX=0.5;exitY=1;exitDx=0;exitDy=0;" edge="1" parent="1" source="4" target="ednj_QzTxMK5WcQrPtkd-64">
          <mxGeometry x="22" y="165.5" width="100" height="100" as="geometry">
            <mxPoint x="442" y="556" as="sourcePoint" />
            <mxPoint x="390" y="770" as="targetPoint" />
            <Array as="points">
              <mxPoint x="390" y="1080" />
            </Array>
          </mxGeometry>
        </mxCell>
        <mxCell id="ednj_QzTxMK5WcQrPtkd-73" value="" style="edgeStyle=elbowEdgeStyle;elbow=vertical;strokeWidth=4;endArrow=block;endFill=1;fontStyle=1;strokeColor=#23445D;entryX=1;entryY=0.5;entryDx=0;entryDy=0;exitX=0.5;exitY=1;exitDx=0;exitDy=0;" edge="1" parent="1" source="4" target="ednj_QzTxMK5WcQrPtkd-65">
          <mxGeometry x="22" y="165.5" width="100" height="100" as="geometry">
            <mxPoint x="452" y="566" as="sourcePoint" />
            <mxPoint x="400" y="780" as="targetPoint" />
            <Array as="points">
              <mxPoint x="370" y="1150" />
            </Array>
          </mxGeometry>
        </mxCell>
        <mxCell id="ednj_QzTxMK5WcQrPtkd-74" value="Nhân viên" style="rounded=1;fillColor=#10739E;strokeColor=none;shadow=1;gradientColor=none;fontStyle=1;fontColor=#FFFFFF;fontSize=14;" vertex="1" parent="1">
          <mxGeometry x="420" y="560" width="200" height="60" as="geometry" />
        </mxCell>
        <mxCell id="ednj_QzTxMK5WcQrPtkd-75" value="Khách hàng" style="rounded=1;fillColor=#10739E;strokeColor=none;shadow=1;gradientColor=none;fontStyle=1;fontColor=#FFFFFF;fontSize=14;" vertex="1" parent="1">
          <mxGeometry x="420" y="630" width="200" height="60" as="geometry" />
        </mxCell>
        <mxCell id="ednj_QzTxMK5WcQrPtkd-76" value="Dịch vụ" style="rounded=1;fillColor=#10739E;strokeColor=none;shadow=1;gradientColor=none;fontStyle=1;fontColor=#FFFFFF;fontSize=14;" vertex="1" parent="1">
          <mxGeometry x="420" y="700" width="200" height="60" as="geometry" />
        </mxCell>
        <mxCell id="ednj_QzTxMK5WcQrPtkd-77" value="Sản phẩm" style="rounded=1;fillColor=#10739E;strokeColor=none;shadow=1;gradientColor=none;fontStyle=1;fontColor=#FFFFFF;fontSize=14;" vertex="1" parent="1">
          <mxGeometry x="420" y="770" width="200" height="60" as="geometry" />
        </mxCell>
        <mxCell id="ednj_QzTxMK5WcQrPtkd-78" value="Khuyến mãi" style="rounded=1;fillColor=#10739E;strokeColor=none;shadow=1;gradientColor=none;fontStyle=1;fontColor=#FFFFFF;fontSize=14;" vertex="1" parent="1">
          <mxGeometry x="420" y="840" width="200" height="60" as="geometry" />
        </mxCell>
        <mxCell id="ednj_QzTxMK5WcQrPtkd-79" value="Bài đăng" style="rounded=1;fillColor=#10739E;strokeColor=none;shadow=1;gradientColor=none;fontStyle=1;fontColor=#FFFFFF;fontSize=14;" vertex="1" parent="1">
          <mxGeometry x="420" y="910" width="200" height="60" as="geometry" />
        </mxCell>
        <mxCell id="ednj_QzTxMK5WcQrPtkd-80" value="Tài khoản" style="rounded=1;fillColor=#10739E;strokeColor=none;shadow=1;gradientColor=none;fontStyle=1;fontColor=#FFFFFF;fontSize=14;" vertex="1" parent="1">
          <mxGeometry x="420" y="980" width="200" height="60" as="geometry" />
        </mxCell>
        <mxCell id="ednj_QzTxMK5WcQrPtkd-81" value="Lịch hẹn" style="rounded=1;fillColor=#10739E;strokeColor=none;shadow=1;gradientColor=none;fontStyle=1;fontColor=#FFFFFF;fontSize=14;" vertex="1" parent="1">
          <mxGeometry x="420" y="1050" width="200" height="60" as="geometry" />
        </mxCell>
        <mxCell id="ednj_QzTxMK5WcQrPtkd-82" value="Hóa đơn" style="rounded=1;fillColor=#10739E;strokeColor=none;shadow=1;gradientColor=none;fontStyle=1;fontColor=#FFFFFF;fontSize=14;" vertex="1" parent="1">
          <mxGeometry x="420" y="1120" width="200" height="60" as="geometry" />
        </mxCell>
        <mxCell id="ednj_QzTxMK5WcQrPtkd-83" value="" style="edgeStyle=elbowEdgeStyle;elbow=vertical;strokeWidth=4;endArrow=block;endFill=1;fontStyle=1;strokeColor=#23445D;entryX=1;entryY=0.5;entryDx=0;entryDy=0;exitX=0.5;exitY=1;exitDx=0;exitDy=0;" edge="1" parent="1" target="ednj_QzTxMK5WcQrPtkd-74">
          <mxGeometry x="22" y="165.5" width="100" height="100" as="geometry">
            <mxPoint x="672" y="515.5" as="sourcePoint" />
            <mxPoint x="620" y="589.5" as="targetPoint" />
            <Array as="points">
              <mxPoint x="620" y="589.5" />
            </Array>
          </mxGeometry>
        </mxCell>
        <mxCell id="ednj_QzTxMK5WcQrPtkd-84" value="" style="edgeStyle=elbowEdgeStyle;elbow=vertical;strokeWidth=4;endArrow=block;endFill=1;fontStyle=1;strokeColor=#23445D;entryX=1;entryY=0.5;entryDx=0;entryDy=0;exitX=0.5;exitY=1;exitDx=0;exitDy=0;" edge="1" parent="1" target="ednj_QzTxMK5WcQrPtkd-75">
          <mxGeometry x="22" y="165.5" width="100" height="100" as="geometry">
            <mxPoint x="672" y="515.5" as="sourcePoint" />
            <mxPoint x="620" y="659.5" as="targetPoint" />
            <Array as="points">
              <mxPoint x="650" y="659.5" />
            </Array>
          </mxGeometry>
        </mxCell>
        <mxCell id="ednj_QzTxMK5WcQrPtkd-85" value="" style="edgeStyle=elbowEdgeStyle;elbow=vertical;strokeWidth=4;endArrow=block;endFill=1;fontStyle=1;strokeColor=#23445D;entryX=1;entryY=0.5;entryDx=0;entryDy=0;exitX=0.5;exitY=1;exitDx=0;exitDy=0;" edge="1" parent="1">
          <mxGeometry x="22" y="165.5" width="100" height="100" as="geometry">
            <mxPoint x="672" y="515.5" as="sourcePoint" />
            <mxPoint x="620" y="729.5" as="targetPoint" />
            <Array as="points">
              <mxPoint x="660" y="729.5" />
            </Array>
          </mxGeometry>
        </mxCell>
        <mxCell id="ednj_QzTxMK5WcQrPtkd-86" value="" style="edgeStyle=elbowEdgeStyle;elbow=vertical;strokeWidth=4;endArrow=block;endFill=1;fontStyle=1;strokeColor=#23445D;exitX=0.5;exitY=1;exitDx=0;exitDy=0;entryX=1;entryY=0.5;entryDx=0;entryDy=0;" edge="1" parent="1" target="ednj_QzTxMK5WcQrPtkd-77">
          <mxGeometry x="22" y="165.5" width="100" height="100" as="geometry">
            <mxPoint x="672" y="515.5" as="sourcePoint" />
            <mxPoint x="620" y="800" as="targetPoint" />
            <Array as="points">
              <mxPoint x="650" y="799.5" />
            </Array>
          </mxGeometry>
        </mxCell>
        <mxCell id="ednj_QzTxMK5WcQrPtkd-87" value="" style="edgeStyle=elbowEdgeStyle;elbow=vertical;strokeWidth=4;endArrow=block;endFill=1;fontStyle=1;strokeColor=#23445D;exitX=0.5;exitY=1;exitDx=0;exitDy=0;entryX=1;entryY=0.5;entryDx=0;entryDy=0;" edge="1" parent="1" target="ednj_QzTxMK5WcQrPtkd-79">
          <mxGeometry x="22" y="165.5" width="100" height="100" as="geometry">
            <mxPoint x="672" y="515.5" as="sourcePoint" />
            <mxPoint x="620" y="939.5" as="targetPoint" />
            <Array as="points">
              <mxPoint x="660" y="939.5" />
            </Array>
          </mxGeometry>
        </mxCell>
        <mxCell id="ednj_QzTxMK5WcQrPtkd-88" value="" style="edgeStyle=elbowEdgeStyle;elbow=vertical;strokeWidth=4;endArrow=block;endFill=1;fontStyle=1;strokeColor=#23445D;entryX=1;entryY=0.5;entryDx=0;entryDy=0;exitX=0.5;exitY=1;exitDx=0;exitDy=0;" edge="1" parent="1" target="ednj_QzTxMK5WcQrPtkd-78">
          <mxGeometry x="22" y="165.5" width="100" height="100" as="geometry">
            <mxPoint x="672" y="515.5" as="sourcePoint" />
            <mxPoint x="620" y="869.5" as="targetPoint" />
            <Array as="points">
              <mxPoint x="650" y="869.5" />
            </Array>
          </mxGeometry>
        </mxCell>
        <mxCell id="ednj_QzTxMK5WcQrPtkd-89" value="" style="edgeStyle=elbowEdgeStyle;elbow=vertical;strokeWidth=4;endArrow=block;endFill=1;fontStyle=1;strokeColor=#23445D;entryX=1;entryY=0.5;entryDx=0;entryDy=0;exitX=0.5;exitY=1;exitDx=0;exitDy=0;" edge="1" parent="1">
          <mxGeometry x="22" y="165.5" width="100" height="100" as="geometry">
            <mxPoint x="672" y="515.5" as="sourcePoint" />
            <mxPoint x="620" y="1009.5" as="targetPoint" />
            <Array as="points">
              <mxPoint x="650" y="1009.5" />
            </Array>
          </mxGeometry>
        </mxCell>
        <mxCell id="ednj_QzTxMK5WcQrPtkd-90" value="" style="edgeStyle=elbowEdgeStyle;elbow=vertical;strokeWidth=4;endArrow=block;endFill=1;fontStyle=1;strokeColor=#23445D;entryX=1;entryY=0.5;entryDx=0;entryDy=0;exitX=0.5;exitY=1;exitDx=0;exitDy=0;" edge="1" parent="1" target="ednj_QzTxMK5WcQrPtkd-81">
          <mxGeometry x="22" y="165.5" width="100" height="100" as="geometry">
            <mxPoint x="672" y="515.5" as="sourcePoint" />
            <mxPoint x="620" y="1079.5" as="targetPoint" />
            <Array as="points">
              <mxPoint x="660" y="1079.5" />
            </Array>
          </mxGeometry>
        </mxCell>
        <mxCell id="ednj_QzTxMK5WcQrPtkd-91" value="" style="edgeStyle=elbowEdgeStyle;elbow=vertical;strokeWidth=4;endArrow=block;endFill=1;fontStyle=1;strokeColor=#23445D;entryX=1;entryY=0.5;entryDx=0;entryDy=0;exitX=0.5;exitY=1;exitDx=0;exitDy=0;" edge="1" parent="1" target="ednj_QzTxMK5WcQrPtkd-82">
          <mxGeometry x="22" y="165.5" width="100" height="100" as="geometry">
            <mxPoint x="672" y="515.5" as="sourcePoint" />
            <mxPoint x="620" y="1149.5" as="targetPoint" />
            <Array as="points">
              <mxPoint x="640" y="1149.5" />
            </Array>
          </mxGeometry>
        </mxCell>
        <mxCell id="ednj_QzTxMK5WcQrPtkd-92" value="Nhân viên" style="rounded=1;fillColor=#10739E;strokeColor=none;shadow=1;gradientColor=none;fontStyle=1;fontColor=#FFFFFF;fontSize=14;" vertex="1" parent="1">
          <mxGeometry x="730" y="564.5" width="200" height="60" as="geometry" />
        </mxCell>
        <mxCell id="ednj_QzTxMK5WcQrPtkd-93" value="Khách hàng" style="rounded=1;fillColor=#10739E;strokeColor=none;shadow=1;gradientColor=none;fontStyle=1;fontColor=#FFFFFF;fontSize=14;" vertex="1" parent="1">
          <mxGeometry x="730" y="634.5" width="200" height="60" as="geometry" />
        </mxCell>
        <mxCell id="ednj_QzTxMK5WcQrPtkd-94" value="Dịch vụ" style="rounded=1;fillColor=#10739E;strokeColor=none;shadow=1;gradientColor=none;fontStyle=1;fontColor=#FFFFFF;fontSize=14;" vertex="1" parent="1">
          <mxGeometry x="730" y="704.5" width="200" height="60" as="geometry" />
        </mxCell>
        <mxCell id="ednj_QzTxMK5WcQrPtkd-95" value="Sản phẩm" style="rounded=1;fillColor=#10739E;strokeColor=none;shadow=1;gradientColor=none;fontStyle=1;fontColor=#FFFFFF;fontSize=14;" vertex="1" parent="1">
          <mxGeometry x="730" y="774.5" width="200" height="60" as="geometry" />
        </mxCell>
        <mxCell id="ednj_QzTxMK5WcQrPtkd-96" value="Khuyến mãi" style="rounded=1;fillColor=#10739E;strokeColor=none;shadow=1;gradientColor=none;fontStyle=1;fontColor=#FFFFFF;fontSize=14;" vertex="1" parent="1">
          <mxGeometry x="730" y="844.5" width="200" height="60" as="geometry" />
        </mxCell>
        <mxCell id="ednj_QzTxMK5WcQrPtkd-97" value="Bài đăng" style="rounded=1;fillColor=#10739E;strokeColor=none;shadow=1;gradientColor=none;fontStyle=1;fontColor=#FFFFFF;fontSize=14;" vertex="1" parent="1">
          <mxGeometry x="730" y="914.5" width="200" height="60" as="geometry" />
        </mxCell>
        <mxCell id="ednj_QzTxMK5WcQrPtkd-98" value="Tài khoản" style="rounded=1;fillColor=#10739E;strokeColor=none;shadow=1;gradientColor=none;fontStyle=1;fontColor=#FFFFFF;fontSize=14;" vertex="1" parent="1">
          <mxGeometry x="730" y="984.5" width="200" height="60" as="geometry" />
        </mxCell>
        <mxCell id="ednj_QzTxMK5WcQrPtkd-99" value="Lịch hẹn" style="rounded=1;fillColor=#10739E;strokeColor=none;shadow=1;gradientColor=none;fontStyle=1;fontColor=#FFFFFF;fontSize=14;" vertex="1" parent="1">
          <mxGeometry x="730" y="1054.5" width="200" height="60" as="geometry" />
        </mxCell>
        <mxCell id="ednj_QzTxMK5WcQrPtkd-100" value="Hóa đơn" style="rounded=1;fillColor=#10739E;strokeColor=none;shadow=1;gradientColor=none;fontStyle=1;fontColor=#FFFFFF;fontSize=14;" vertex="1" parent="1">
          <mxGeometry x="730" y="1124.5" width="200" height="60" as="geometry" />
        </mxCell>
        <mxCell id="ednj_QzTxMK5WcQrPtkd-101" value="" style="edgeStyle=elbowEdgeStyle;elbow=vertical;strokeWidth=4;endArrow=block;endFill=1;fontStyle=1;strokeColor=#23445D;entryX=1;entryY=0.5;entryDx=0;entryDy=0;exitX=0.5;exitY=1;exitDx=0;exitDy=0;" edge="1" parent="1" target="ednj_QzTxMK5WcQrPtkd-92">
          <mxGeometry x="22" y="165.5" width="100" height="100" as="geometry">
            <mxPoint x="982" y="520" as="sourcePoint" />
            <mxPoint x="930" y="594" as="targetPoint" />
            <Array as="points">
              <mxPoint x="930" y="594" />
            </Array>
          </mxGeometry>
        </mxCell>
        <mxCell id="ednj_QzTxMK5WcQrPtkd-102" value="" style="edgeStyle=elbowEdgeStyle;elbow=vertical;strokeWidth=4;endArrow=block;endFill=1;fontStyle=1;strokeColor=#23445D;entryX=1;entryY=0.5;entryDx=0;entryDy=0;exitX=0.5;exitY=1;exitDx=0;exitDy=0;" edge="1" parent="1" target="ednj_QzTxMK5WcQrPtkd-93">
          <mxGeometry x="22" y="165.5" width="100" height="100" as="geometry">
            <mxPoint x="982" y="520" as="sourcePoint" />
            <mxPoint x="930" y="664" as="targetPoint" />
            <Array as="points">
              <mxPoint x="960" y="664" />
            </Array>
          </mxGeometry>
        </mxCell>
        <mxCell id="ednj_QzTxMK5WcQrPtkd-103" value="" style="edgeStyle=elbowEdgeStyle;elbow=vertical;strokeWidth=4;endArrow=block;endFill=1;fontStyle=1;strokeColor=#23445D;entryX=1;entryY=0.5;entryDx=0;entryDy=0;exitX=0.5;exitY=1;exitDx=0;exitDy=0;" edge="1" parent="1">
          <mxGeometry x="22" y="165.5" width="100" height="100" as="geometry">
            <mxPoint x="982" y="520" as="sourcePoint" />
            <mxPoint x="930" y="734" as="targetPoint" />
            <Array as="points">
              <mxPoint x="970" y="734" />
            </Array>
          </mxGeometry>
        </mxCell>
        <mxCell id="ednj_QzTxMK5WcQrPtkd-104" value="" style="edgeStyle=elbowEdgeStyle;elbow=vertical;strokeWidth=4;endArrow=block;endFill=1;fontStyle=1;strokeColor=#23445D;exitX=0.5;exitY=1;exitDx=0;exitDy=0;entryX=1;entryY=0.5;entryDx=0;entryDy=0;" edge="1" parent="1" target="ednj_QzTxMK5WcQrPtkd-95">
          <mxGeometry x="22" y="165.5" width="100" height="100" as="geometry">
            <mxPoint x="982" y="520" as="sourcePoint" />
            <mxPoint x="930" y="804.5" as="targetPoint" />
            <Array as="points">
              <mxPoint x="960" y="804" />
            </Array>
          </mxGeometry>
        </mxCell>
        <mxCell id="ednj_QzTxMK5WcQrPtkd-105" value="" style="edgeStyle=elbowEdgeStyle;elbow=vertical;strokeWidth=4;endArrow=block;endFill=1;fontStyle=1;strokeColor=#23445D;exitX=0.5;exitY=1;exitDx=0;exitDy=0;entryX=1;entryY=0.5;entryDx=0;entryDy=0;" edge="1" parent="1" target="ednj_QzTxMK5WcQrPtkd-97">
          <mxGeometry x="22" y="165.5" width="100" height="100" as="geometry">
            <mxPoint x="982" y="520" as="sourcePoint" />
            <mxPoint x="930" y="944" as="targetPoint" />
            <Array as="points">
              <mxPoint x="970" y="944" />
            </Array>
          </mxGeometry>
        </mxCell>
        <mxCell id="ednj_QzTxMK5WcQrPtkd-106" value="" style="edgeStyle=elbowEdgeStyle;elbow=vertical;strokeWidth=4;endArrow=block;endFill=1;fontStyle=1;strokeColor=#23445D;entryX=1;entryY=0.5;entryDx=0;entryDy=0;exitX=0.5;exitY=1;exitDx=0;exitDy=0;" edge="1" parent="1" target="ednj_QzTxMK5WcQrPtkd-96">
          <mxGeometry x="22" y="165.5" width="100" height="100" as="geometry">
            <mxPoint x="982" y="520" as="sourcePoint" />
            <mxPoint x="930" y="874" as="targetPoint" />
            <Array as="points">
              <mxPoint x="960" y="874" />
            </Array>
          </mxGeometry>
        </mxCell>
        <mxCell id="ednj_QzTxMK5WcQrPtkd-107" value="" style="edgeStyle=elbowEdgeStyle;elbow=vertical;strokeWidth=4;endArrow=block;endFill=1;fontStyle=1;strokeColor=#23445D;entryX=1;entryY=0.5;entryDx=0;entryDy=0;exitX=0.5;exitY=1;exitDx=0;exitDy=0;" edge="1" parent="1">
          <mxGeometry x="22" y="165.5" width="100" height="100" as="geometry">
            <mxPoint x="982" y="520" as="sourcePoint" />
            <mxPoint x="930" y="1014" as="targetPoint" />
            <Array as="points">
              <mxPoint x="960" y="1014" />
            </Array>
          </mxGeometry>
        </mxCell>
        <mxCell id="ednj_QzTxMK5WcQrPtkd-108" value="" style="edgeStyle=elbowEdgeStyle;elbow=vertical;strokeWidth=4;endArrow=block;endFill=1;fontStyle=1;strokeColor=#23445D;entryX=1;entryY=0.5;entryDx=0;entryDy=0;exitX=0.5;exitY=1;exitDx=0;exitDy=0;" edge="1" parent="1" target="ednj_QzTxMK5WcQrPtkd-99">
          <mxGeometry x="22" y="165.5" width="100" height="100" as="geometry">
            <mxPoint x="982" y="520" as="sourcePoint" />
            <mxPoint x="930" y="1084" as="targetPoint" />
            <Array as="points">
              <mxPoint x="970" y="1084" />
            </Array>
          </mxGeometry>
        </mxCell>
        <mxCell id="ednj_QzTxMK5WcQrPtkd-109" value="" style="edgeStyle=elbowEdgeStyle;elbow=vertical;strokeWidth=4;endArrow=block;endFill=1;fontStyle=1;strokeColor=#23445D;entryX=1;entryY=0.5;entryDx=0;entryDy=0;exitX=0.5;exitY=1;exitDx=0;exitDy=0;" edge="1" parent="1" target="ednj_QzTxMK5WcQrPtkd-100">
          <mxGeometry x="22" y="165.5" width="100" height="100" as="geometry">
            <mxPoint x="982" y="520" as="sourcePoint" />
            <mxPoint x="930" y="1154" as="targetPoint" />
            <Array as="points">
              <mxPoint x="950" y="1154" />
            </Array>
          </mxGeometry>
        </mxCell>
        <mxCell id="ednj_QzTxMK5WcQrPtkd-110" value="Chưa hoàn thiện" style="rounded=1;fillColor=#10739E;strokeColor=none;shadow=1;gradientColor=none;fontStyle=1;fontColor=#FFFFFF;fontSize=14;" vertex="1" parent="1">
          <mxGeometry x="1042" y="570" width="200" height="60" as="geometry" />
        </mxCell>
        <mxCell id="ednj_QzTxMK5WcQrPtkd-111" value="" style="edgeStyle=elbowEdgeStyle;elbow=vertical;strokeWidth=4;endArrow=block;endFill=1;fontStyle=1;strokeColor=#23445D;exitX=0.5;exitY=1;exitDx=0;exitDy=0;entryX=0.5;entryY=0;entryDx=0;entryDy=0;" edge="1" parent="1" source="ednj_QzTxMK5WcQrPtkd-55" target="ednj_QzTxMK5WcQrPtkd-110">
          <mxGeometry x="22" y="165.5" width="100" height="100" as="geometry">
            <mxPoint x="782" y="416" as="sourcePoint" />
            <mxPoint x="1152" y="466" as="targetPoint" />
            <Array as="points">
              <mxPoint x="1142" y="550" />
            </Array>
          </mxGeometry>
        </mxCell>
      </root>
    </mxGraphModel>
  </diagram>
</mxfile>
